<svg width="262" height="170" viewBox="0 0 262 170" fill="none" xmlns="http://www.w3.org/2000/svg">
<path fill-rule="evenodd" clip-rule="evenodd" d="M123.842 82.4418V82.4415L123.842 82.4416L123.842 82.4418Z" fill="#4D4D4D"/>
<path fill-rule="evenodd" clip-rule="evenodd" d="M171.652 90.3219C171.551 90.4057 171.456 90.5006 171.367 90.605C169.485 92.7784 167.656 95.1375 165.854 97.6556C163.839 100.465 161.931 102.877 160.181 104.918C158.432 106.959 156.974 107.993 155.834 107.993C155.251 107.993 154.854 106.88 154.589 104.653C154.112 100.916 153.9 98.4509 153.9 97.2052C153.741 94.5544 153.475 92.0628 153.104 89.7039C152.76 87.345 152.044 85.4896 151.01 84.1643C150.136 83.1305 149.208 82.6004 148.227 82.6004C146.266 82.6004 143.96 84.8006 141.309 89.2004C139.851 91.6388 138.367 94.316 136.803 97.2846C131.794 106.429 128.719 111.015 127.632 111.015C127.182 110.909 126.625 109.822 126.016 107.754C124.558 103.01 123.842 95.7736 123.842 86.0992C124.24 86.4173 124.717 86.5498 125.247 86.5498C125.538 86.5498 125.91 86.4702 126.334 86.3379C132.801 82.8124 137.307 75.8946 139.825 65.5838C141.283 59.7524 141.999 53.9212 141.999 48.1165C141.999 42.3119 141.416 37.5405 140.223 33.7502C138.765 29.2972 136.538 27.0708 133.543 27.0708C131.052 27.0708 128.931 28.8464 127.182 32.3453C124.134 38.8924 122.013 47.4005 120.874 57.897C119.734 68.4199 119.177 77.4054 119.177 84.8537C119.177 86.7214 119.2 88.5068 119.248 90.2101L115.779 94.7933C110.028 102.718 105.946 106.906 103.507 107.383H103.348C102.527 107.383 101.864 106.827 101.387 105.714C100.883 104.6 100.565 103.169 100.433 101.42C100.326 99.6968 100.247 98.0003 100.247 96.3569C100.247 94.263 100.326 92.2219 100.486 90.2076C100.592 88.6968 100.644 87.3715 100.644 86.1788L100.565 83.9256C100.353 81.3281 99.3986 80.0293 97.6757 80.0293C96.2445 80.0293 94.5746 81.6197 92.7192 84.774L91.6324 86.7883C90.1216 85.9665 88.664 85.5425 87.206 85.5425C82.859 85.5425 79.2012 88.3256 76.2592 93.8654C73.9796 98.0533 72.8398 102.215 72.8398 106.35C72.8398 107.595 72.9724 108.762 73.2374 109.848C73.8471 112.128 74.9605 113.268 76.5506 113.268C78.8831 113.268 81.8253 110.776 85.3504 105.82C88.1867 101.738 90.8636 97.4968 93.3287 93.0968C94.5744 92.7786 95.2107 91.9836 95.2107 90.7643L95.1311 90.0487L95.9792 88.4318C95.7672 90.4992 95.6612 92.9909 95.6612 95.8799C95.6612 97.8414 95.7142 99.8294 95.8201 101.87C96.4032 108.576 98.8419 111.942 103.189 111.942C105.839 111.942 108.728 110.273 111.909 106.906C114.851 103.699 116.906 100.943 119.61 97.2052C119.967 103.173 120.516 105.579 121.589 109.08C122.887 113.427 124.955 115.6 127.791 115.6C130.229 115.6 132.986 113.082 136.034 108.072C137.572 105.422 139.162 102.639 140.779 99.6966C140.779 99.5905 140.805 99.4846 140.885 99.3784C140.964 99.2725 141.017 99.1136 141.07 98.9013C144.384 92.8048 146.663 89.1208 147.909 87.8749C148.465 89.4387 148.943 92.7253 149.314 97.7349C149.473 101.472 149.897 104.786 150.639 107.675C151.355 110.59 152.892 112.234 155.198 112.658H155.516C157.848 112.658 160.155 111.492 162.434 109.159C165.217 106.27 167.682 103.195 169.803 99.9879C170.071 99.6244 170.337 99.2663 170.602 98.9132L171.652 90.3219ZM125.936 54.8755C127.235 45.9165 129.011 39.1044 131.29 34.4662C131.9 33.2204 132.536 32.3455 133.145 31.8948L133.622 31.6563C134.285 31.6563 135.027 32.8225 135.796 35.1552C136.883 38.5743 137.439 42.9478 137.439 48.2756C137.386 53.6032 136.671 59.0104 135.319 64.4972C133.092 73.5091 129.408 79.4201 124.213 82.203L123.842 82.4415V82.4418L123.842 82.4416L123.842 82.4415C123.948 73.0319 124.637 63.8347 125.936 54.8755ZM89.3001 90.8175C83.9194 100.36 80.0231 106.138 77.664 108.152L77.6638 108.153C77.5579 107.516 77.5049 106.88 77.5049 106.218C77.5049 102.984 78.4326 99.6175 80.288 96.0394C82.4086 92.09 84.7144 90.1284 87.206 90.1284C87.9216 90.1284 88.6374 90.3671 89.3001 90.8175Z" fill="#4D4D4D"/>
<path fill-rule="evenodd" clip-rule="evenodd" d="M123.842 82.4415V82.4418L123.842 82.4416L123.842 82.4415Z" fill="#4D4D4D"/>
<path fill-rule="evenodd" clip-rule="evenodd" d="M196.908 107.578H196.749C195.927 107.578 195.264 107.022 194.787 105.908C194.283 104.795 193.966 103.364 193.833 101.614C193.727 99.8916 193.647 98.1951 193.647 96.5516C193.647 94.4578 193.727 92.4167 193.886 90.4024C193.992 88.8916 194.045 87.5663 194.045 86.3736L193.965 84.1204C193.753 81.5228 192.799 80.2241 191.076 80.2241C189.645 80.2241 187.975 81.8145 186.12 84.9687L185.033 86.983C183.522 86.1613 182.064 85.7373 180.606 85.7373C176.259 85.7373 172.602 88.5204 169.66 94.0602C167.38 98.2481 166.24 102.41 166.24 106.544C166.24 107.79 166.373 108.956 166.638 110.043C167.247 112.323 168.361 113.462 169.951 113.462C172.284 113.462 175.226 110.971 178.751 106.014C181.587 101.932 184.264 97.6916 186.729 93.2916C187.975 92.9734 188.611 92.1784 188.611 90.9591L188.531 90.2435L189.38 88.6265C189.168 90.694 189.062 93.1857 189.062 96.0747C189.062 98.0362 189.115 100.024 189.221 102.065C189.804 108.771 192.242 112.137 196.589 112.137C197.69 110.517 197.848 109.537 196.908 107.578ZM182.7 91.0122C177.32 100.555 173.424 106.333 171.064 108.347L171.064 108.347C170.958 107.711 170.905 107.075 170.905 106.412C170.905 103.179 171.833 99.8122 173.688 96.2342C175.809 92.2847 178.115 90.3232 180.606 90.3232C181.322 90.3232 182.038 90.5619 182.7 91.0122Z" fill="#4D4D4D"/>
<path d="M153.144 57.4792C152.569 57.5773 152.023 57.1906 151.925 56.6157C151.827 56.0409 152.214 55.4949 152.789 55.3969C152.925 55.3734 200.436 47.687 215.623 0.732439C215.801 0.178132 216.394 -0.127195 216.949 0.0506748C217.503 0.228545 217.809 0.822232 217.631 1.3767C202.044 49.5667 153.285 57.4551 153.144 57.4791" fill="#333333"/>
<path d="M183.574 45.0874C183.056 45.3543 182.419 45.1507 182.152 44.6329C181.886 44.1151 182.089 43.4785 182.607 43.2116C182.715 43.156 219.675 23.5734 261.277 41.7045C261.811 41.9371 262.055 42.5589 261.822 43.0925C261.59 43.6263 260.968 43.8706 260.434 43.6378C219.764 25.9132 183.679 45.0332 183.574 45.0874Z" fill="#333333"/>
<path d="M225.451 36.0937C224.892 35.9297 224.572 35.343 224.736 34.7842C224.9 34.2252 225.487 33.9052 226.046 34.0694C226.078 34.0784 237.09 37.2286 245.697 52.7215C245.98 53.2304 245.797 53.8723 245.288 54.1552C244.779 54.4378 244.137 54.2549 243.854 53.7462C235.67 39.0138 225.48 36.1024 225.451 36.0937Z" fill="#333333"/>
<path d="M194.254 59.5991C180.513 60.1114 177.45 47.1922 177.441 47.1555L177.443 47.1547C177.425 47.082 177.415 47.0062 177.413 46.9283C177.396 46.3466 177.855 45.8617 178.437 45.8456C181.938 45.7471 185.523 46.7187 188.621 49.0092C191.318 51.0036 193.637 53.9933 195.19 58.1403C195.238 58.2541 195.266 58.3779 195.27 58.5083C195.291 59.09 194.836 59.5787 194.254 59.5991ZM179.927 47.981C181.004 50.7901 184.333 57.0806 192.642 57.4836C191.279 54.4682 189.446 52.2417 187.365 50.7031C185.091 49.0221 182.512 48.1578 179.927 47.981Z" fill="#333333"/>
<path fill-rule="evenodd" clip-rule="evenodd" d="M203.883 37.2232C203.883 37.2232 206.983 50.3009 220.869 49.7833C217.47 40.6653 210.53 37.0357 203.883 37.2232Z" fill="#333333"/>
<path fill-rule="evenodd" clip-rule="evenodd" d="M231 35.3125C231 35.3125 244.434 35.7027 247.529 22.1558C237.841 23.0798 232.539 28.8434 231 35.3125Z" fill="#333333"/>
<path d="M207.104 20.6142C206.666 20.2308 206.622 19.5649 207.005 19.127C209.315 16.493 212.467 14.5256 216.253 13.8139C219.55 13.1943 223.319 13.5288 227.415 15.2117C227.531 15.2543 227.641 15.3181 227.74 15.4037C228.18 15.7845 228.228 16.4509 227.847 16.8913C219.051 27.1041 207.574 20.8744 207.104 20.6142ZM209.583 19.4885C212.371 20.6093 219.247 22.4525 225.199 16.6335C222.062 15.5811 219.183 15.4099 216.641 15.8877C213.86 16.4107 211.471 17.7139 209.583 19.4885Z" fill="#333333"/>
<path fill-rule="evenodd" clip-rule="evenodd" d="M190.896 38.5548C190.896 38.5548 197.951 27.1152 187.766 17.6621C183.723 26.5134 186.063 33.9869 190.896 38.5548Z" fill="#333333"/>
<path fill-rule="evenodd" clip-rule="evenodd" d="M10.3351 25.6482C8.88095 27.8956 10.6715 30.3246 12.1261 29.7956C25.3474 23.7138 19.89 26.0669 37.4748 20.5138C36.5493 32.942 36.1529 45.238 36.1529 60.5749C36.1529 65.9959 36.1529 71.8131 36.2849 78.2917C24.9144 78.6884 13.6759 79.4815 0.718935 80.6716C-0.0743467 80.8037 -0.338462 81.7292 0.586971 82.7869C0.718933 83.0512 0.851276 83.1836 1.24811 83.4481C1.24811 83.5802 1.38025 83.7126 1.38025 83.7126C2.43784 84.3735 3.49562 84.77 4.15675 84.5057H4.42104C14.6016 87.2823 27.4264 96.4051 34.3018 107.908C34.7669 108.506 35.0984 109.137 35.4475 109.802C35.7929 110.46 36.1554 111.151 36.6815 111.874C36.6815 115.18 37.6069 134.218 38.6647 136.863C38.6647 136.907 38.6794 136.951 38.6941 136.995C38.7235 137.083 38.7529 137.171 38.6647 137.26C39.3258 138.317 40.7801 139.639 41.8378 139.507C43.1599 139.375 43.9534 134.747 43.9534 129.459C43.9534 123.773 43.0277 117.163 41.0445 113.99L40.6479 82.1258L70.7926 81.7292C73.0292 81.7292 75.3275 81.7601 77.7026 81.792C80.2416 81.8262 82.8682 81.8615 85.6007 81.8615C86.6586 81.8615 87.1872 81.0684 86.1298 80.0106C85.3364 78.8205 83.8821 77.8953 82.8242 77.8953H72.7758L40.5154 78.1598C40.5225 77.1336 40.5293 76.1173 40.5359 75.1091C40.6535 57.4123 40.7546 42.1868 42.6305 18.7952C51.357 16.1509 59.0253 14.0352 64.8428 12.4488C76.3456 9.53995 86.7908 7.95358 95.2522 7.95358C105.83 7.95358 113.498 10.4656 116.804 15.7542C117.2 16.5473 118.522 16.2832 118.258 14.6965C116.275 6.76346 105.565 4.25146 93.5335 4.25146C83.4851 4.25146 72.3792 5.97056 64.3142 7.95377L64.1942 7.98596C58.7844 9.43721 51.431 11.4099 43.5563 13.9034C43.6885 13.2424 43.9532 12.8458 44.2177 12.5813C44.482 12.0521 43.9532 10.7304 42.6307 10.0693C41.0444 9.01134 39.9866 9.01135 39.3256 9.40799C38.5323 10.7304 38.1355 12.8458 37.7389 15.7544C20.4188 21.3076 21.3091 21.0209 10.3351 25.6482ZM36.1525 82.3903C28.2195 82.6548 19.6256 83.1836 11.1638 83.9767C22.0056 89.2653 31.1283 97.3307 36.4168 104.603L36.1525 82.3903Z" fill="#4D4D4D"/>
<path d="M174.32 168.365L176.085 167.894V152.984L174.32 152.543V151.631H185.349L185.055 156.219H183.849L183.555 152.837L178.143 153.102V159.366L182.614 159.454V160.601L178.143 160.689V167.747L183.819 168.041L184.231 164.601H185.437L185.525 169.247H174.32V168.365Z" fill="#4D4D4D"/>
<path d="M151.746 168.365L153.511 167.894V152.984L151.746 152.543V151.631H158.775C160.304 151.631 161.451 151.984 162.216 152.69C163 153.396 163.392 154.651 163.392 156.454C163.392 157.807 163.068 158.915 162.421 159.778C161.794 160.621 160.931 161.15 159.833 161.366V161.513C161.598 164.591 162.863 166.728 163.627 167.924L165.215 168.247V169.247H161.951C161.676 168.718 161.167 167.767 160.422 166.395C159.343 164.414 158.5 162.816 157.893 161.601H155.569V167.777L157.451 168.188V169.247H151.746V168.365ZM158.54 160.248C159.324 160.248 159.971 160.013 160.48 159.542C160.99 159.072 161.245 158.17 161.245 156.837C161.245 155.425 161.059 154.415 160.686 153.808C160.333 153.2 159.765 152.896 158.981 152.896L155.569 153.072V160.248H158.54Z" fill="#4D4D4D"/>
<path d="M133.182 169.512C131.829 169.512 130.82 169.12 130.153 168.336C129.506 167.532 129.183 166.297 129.183 164.63V152.984L127.389 152.543V151.631H133.094V152.631L131.212 153.102V164.307C131.212 165.6 131.378 166.493 131.712 166.983C132.065 167.453 132.555 167.689 133.182 167.689C133.614 167.689 134.231 167.581 135.035 167.365C135.858 167.13 136.848 166.836 138.005 166.483V153.102L136.123 152.631V151.631H141.828V152.543L140.034 152.984V167.894L141.828 168.365V169.247H138.505L138.035 167.659C136.76 168.208 135.702 168.659 134.858 169.012C134.015 169.345 133.457 169.512 133.182 169.512Z" fill="#4D4D4D"/>
<path d="M109.302 168.365L111.155 167.894V153.014L107.626 153.131L107.361 156.66H106.185L105.861 151.631H118.507L118.213 156.66H117.007L116.743 153.131L113.214 153.014V167.777L115.154 168.247V169.247H109.302V168.365Z" fill="#4D4D4D"/>
<path d="M88.1783 169.512C86.8255 169.512 85.8158 169.12 85.1492 168.336C84.5022 167.532 84.1787 166.297 84.1787 164.63V152.984L82.3848 152.543V151.631H88.0901V152.631L86.2079 153.102V164.307C86.2079 165.6 86.3746 166.493 86.7079 166.983C87.0608 167.453 87.5509 167.689 88.1783 167.689C88.6096 167.689 89.2272 167.581 90.031 167.365C90.8545 167.13 91.8446 166.836 93.0013 166.483V153.102L91.1192 152.631V151.631H96.8245V152.543L95.0305 152.984V167.894L96.8245 168.365V169.247H93.5013L93.0307 167.659C91.7563 168.208 90.6976 168.659 89.8546 169.012C89.0115 169.345 88.4528 169.512 88.1783 169.512Z" fill="#4D4D4D"/>
<path d="M66.7388 169.512C61.8569 169.512 59.416 166.659 59.416 160.954C59.416 158.405 59.7297 156.395 60.3571 154.925C60.71 154.376 61.2099 153.827 61.8569 153.278C62.5039 152.729 63.1411 152.278 63.7685 151.925C64.4155 151.572 64.886 151.396 65.1801 151.396C67.6897 151.396 69.5424 152.112 70.7384 153.543C71.9539 154.954 72.5617 157.121 72.5617 160.042C72.5617 161.238 72.4735 162.365 72.297 163.424C72.1206 164.483 71.9049 165.395 71.6501 166.159C71.3364 166.61 70.856 167.1 70.209 167.63C69.562 168.159 68.9052 168.61 68.2386 168.982C67.572 169.335 67.0721 169.512 66.7388 169.512ZM66.5917 168.071C66.925 168.071 67.4642 167.865 68.2092 167.453C68.9542 167.022 69.4346 166.64 69.6503 166.306C69.8463 165.698 70.013 164.885 70.1502 163.865C70.3071 162.826 70.3855 161.699 70.3855 160.483C70.3855 157.974 70.0326 156.072 69.3268 154.778C68.6406 153.484 67.4348 152.837 65.7095 152.837C65.3762 152.837 64.9841 152.906 64.5331 153.043C64.1018 153.18 63.6999 153.386 63.3274 153.66C62.798 154.033 62.3765 154.788 62.0628 155.925C61.7491 157.042 61.5923 158.523 61.5923 160.366C61.5923 162.385 61.7687 163.954 62.1216 165.071C62.4941 166.189 63.0431 166.973 63.7685 167.424C64.4939 167.855 65.435 168.071 66.5917 168.071Z" fill="#4D4D4D"/>
<path d="M44.6155 169.512C43.5175 169.512 42.5372 169.198 41.6746 168.571C40.8119 167.924 40.1355 166.963 39.6454 165.689C39.1552 164.414 38.9102 162.875 38.9102 161.071C38.9102 159.797 38.9886 158.631 39.1454 157.572C39.3219 156.513 39.5571 155.631 39.8512 154.925C40.2041 154.376 40.7041 153.827 41.3511 153.278C41.9981 152.729 42.6353 152.278 43.2627 151.925C43.9096 151.572 44.3802 151.396 44.6743 151.396C45.2428 151.416 45.9781 151.455 46.8799 151.514C47.7818 151.572 48.6543 151.641 49.4973 151.719L49.2032 156.307H47.9975L47.7034 153.278C47.3309 153.2 46.7819 153.131 46.0565 153.072C45.3311 153.013 44.7919 152.984 44.439 152.984C43.9685 152.984 43.4293 153.229 42.8215 153.719C42.2922 154.072 41.8706 154.807 41.5569 155.925C41.2432 157.023 41.0864 158.444 41.0864 160.189C41.0864 163.012 41.4687 165.002 42.2333 166.159C43.0176 167.316 44.1253 167.894 45.5565 167.894H47.674L48.1151 164.248L49.262 164.277V169.041C48.9287 169.12 48.1837 169.218 47.027 169.335C45.8702 169.453 45.0664 169.512 44.6155 169.512Z" fill="#4D4D4D"/>
</svg>
